<?xml version="1.0" standalone="no"?>
<!DOCTYPE svg PUBLIC "-//W3C//DTD SVG 20010904//EN"
 "http://www.w3.org/TR/2001/REC-SVG-20010904/DTD/svg10.dtd">
<svg version="1.0" xmlns="http://www.w3.org/2000/svg"
 width="700.000000pt" height="700.000000pt" viewBox="0 0 700.000000 700.000000"
 preserveAspectRatio="xMidYMid meet">
<metadata>
Created by potrace 1.14, written by Peter Selinger 2001-2017
</metadata>
<g transform="translate(0.000000,700.000000) scale(0.100000,-0.100000)"
fill="#000000" stroke="none">
<path d="M3501 5251 c-1922 -961 -3490 -1750 -3485 -1753 9 -5 52 -17 90 -24
11 -2 92 -21 180 -43 169 -42 429 -105 504 -122 25 -6 52 -12 60 -14 8 -2 154
-38 325 -80 171 -42 384 -94 475 -116 91 -22 220 -54 288 -70 67 -17 133 -32
146 -35 23 -4 34 2 146 81 30 21 102 71 160 111 108 73 692 476 745 514 81 57
343 238 500 345 97 66 182 125 188 131 7 6 25 19 42 30 16 10 246 168 510 351
483 334 535 370 678 469 43 30 75 48 70 41 -4 -8 -78 -88 -163 -177 -85 -89
-173 -181 -195 -205 -22 -23 -104 -109 -181 -191 -78 -82 -156 -165 -174 -184
-18 -19 -101 -107 -185 -195 -84 -88 -167 -176 -185 -195 -18 -19 -98 -104
-179 -189 -80 -85 -162 -170 -181 -191 -19 -20 -101 -106 -181 -191 -81 -85
-161 -170 -179 -189 -18 -19 -97 -102 -175 -185 -79 -82 -170 -179 -204 -215
l-61 -65 32 -29 c18 -16 66 -59 106 -95 41 -36 84 -75 96 -86 22 -20 153 -136
186 -165 45 -40 155 -137 174 -155 39 -35 178 -159 200 -178 41 -36 161 -142
176 -157 9 -8 52 -46 96 -85 43 -38 81 -72 84 -75 3 -3 43 -39 90 -80 47 -41
105 -94 130 -116 25 -23 63 -57 85 -75 21 -19 53 -47 71 -64 17 -16 47 -43 65
-59 50 -44 193 -170 199 -176 3 -3 127 -113 275 -245 149 -132 276 -247 282
-255 11 -13 14 -13 23 0 6 8 13 26 16 40 6 22 73 267 120 440 9 30 17 62 19
70 3 12 141 520 240 880 14 52 27 102 29 110 2 8 14 49 25 90 33 115 177 645
196 720 2 8 27 98 55 200 28 102 55 201 60 220 5 19 25 94 45 165 20 72 50
182 67 245 17 63 37 138 45 165 8 28 16 57 18 65 6 26 144 533 160 585 7 28
66 244 131 480 64 237 125 462 135 500 11 39 21 77 23 86 3 9 13 47 24 85 11
38 41 148 67 244 25 96 51 189 56 205 8 29 67 244 74 275 2 8 35 130 74 270
38 140 69 256 68 256 -1 1 -1574 -784 -3496 -1745z"/>
<path d="M2625 1070 c0 -583 2 -1060 5 -1059 3 0 73 93 155 206 83 113 187
255 232 317 46 61 89 120 97 131 29 39 311 423 329 446 9 13 43 59 74 103 l57
78 -49 45 c-66 60 -93 84 -325 289 -19 17 -87 77 -150 134 -124 111 -142 127
-270 240 -46 41 -98 87 -115 102 -16 16 -32 28 -35 28 -3 0 -5 -477 -5 -1060z"/>
</g>
</svg>
